<svg xmlns="http://www.w3.org/2000/svg" viewBox="0 0 320 160"><rect width="320" height="160" fill="#0A1033"/><circle cx="268" cy="20" r="80" fill="#E8176F" opacity=".85"/><rect x="0" y="118" width="320" height="42" fill="#1B3DE6"/><g fill="#E6E9FF"><rect x="30" y="58" width="34" height="60"/><rect x="72" y="40" width="44" height="78"/><rect x="124" y="70" width="30" height="48"/><rect x="190" y="50" width="40" height="68"/></g><g fill="#FACC15"><rect x="38" y="68" width="8" height="8"/><rect x="82" y="52" width="8" height="8"/><rect x="98" y="72" width="8" height="8"/><rect x="200" y="62" width="8" height="8"/><rect x="214" y="84" width="8" height="8"/></g><path d="M262 64l26 10v20c0 16-11 26-26 32-15-6-26-16-26-32V74z" fill="#FFFFFF"/><path d="M251 94l8 8 15-17" fill="none" stroke="#15803D" stroke-width="6" stroke-linecap="round" stroke-linejoin="round"/></svg>
